<svg xmlns="http://www.w3.org/2000/svg" width="80" height="82.799" viewBox="0 0 80 82.799">
  <g id="icon" transform="translate(-25.961 -24.79)">
    <g id="coin-hand" transform="translate(-552.563 -27.155)">
      <path id="Path_5909" data-name="Path 5909" d="M682.809,77.364a2.819,2.819,0,0,0-1.781-2.535,11.292,11.292,0,0,0-1.339-.5c-.263-.086-.526-.172-.785-.269a4.423,4.423,0,0,1-3.114-4.085,4.266,4.266,0,0,1,3.51-4.191V64.656h1.5v1.126a4.266,4.266,0,0,1,3.51,4.191v.251h-1.5v-.251a2.758,2.758,0,1,0-5.515,0,2.693,2.693,0,0,0,1.056,2.121,6.9,6.9,0,0,0,2.023.9c.215.07.429.139.638.213a4.949,4.949,0,0,1,2.331,1.483,4.227,4.227,0,0,1-2.538,6.862v1.126h-1.5V81.555a4.277,4.277,0,0,1-3.51-4.127l0-.254h1.5l0,.246a2.758,2.758,0,0,0,5.515-.056ZM680.05,95.393a21.724,21.724,0,1,0-21.724-21.724A21.748,21.748,0,0,0,680.05,95.393Zm0-41.5a19.775,19.775,0,1,1-19.775,19.774A19.8,19.8,0,0,1,680.05,53.894Zm0,37.021A17.247,17.247,0,1,0,662.8,73.669,17.266,17.266,0,0,0,680.05,90.916Zm0-32.545a15.3,15.3,0,1,1-15.3,15.3A15.315,15.315,0,0,1,680.05,58.371Z" transform="translate(-49.84)" fill="#ff9c1a"/>
      <path id="Path_5910" data-name="Path 5910" d="M600.338,186.069a3.548,3.548,0,1,0,3.626,3.548A3.588,3.588,0,0,0,600.338,186.069Zm0,5.146a1.6,1.6,0,1,1,1.634-1.6A1.624,1.624,0,0,1,600.338,191.215Zm0-5.146a3.548,3.548,0,1,0,3.626,3.548A3.588,3.588,0,0,0,600.338,186.069Zm0,5.146a1.6,1.6,0,1,1,1.634-1.6A1.624,1.624,0,0,1,600.338,191.215Zm57.1-34.716c-.707-.526-2.749-1.374-6.345,2.105a11.712,11.712,0,0,0-.906.965,23.749,23.749,0,0,1-3.675,3.314,77.317,77.317,0,0,1-9.124,5.965,4.847,4.847,0,0,0-1.245-1.208c-5.648-3.976-29.534-4.873-29.763-4.873-2.59,0-6.1.8-8.118,2.631-1.4,1.384-3.815,3.645-5.747,5.448l-.8.741-2.729-2.661-10.459,10.233L600.039,200.2l10.449-10.234-3.108-3.051a4.525,4.525,0,0,1,3.108-1.364h.169c2.5-.039,9.463-.127,20.24,0,6.465,0,20.39-11.647,26.137-21.861C658.868,160.436,659.018,157.678,657.434,156.5ZM607.68,189.967l-7.64,7.485-18.706-18.294,7.65-7.485Zm47.6-27.221c-5.658,10.078-19.155,20.857-24.424,20.857-10.738-.127-17.73-.039-20.24,0h-.129a6.524,6.524,0,0,0-4.512,1.94l-12.86-12.573.767-.7c1.942-1.832,4.373-4.1,5.757-5.468,1.514-1.374,4.532-2.086,6.734-2.086,1.793,0,23.816,1.141,28.6,4.5,1.116.789,1.126,1.355.717,2.261a2.886,2.886,0,0,1-2.839,1.53H615.818v1.949h17.033a4.8,4.8,0,0,0,4.672-2.709,4.31,4.31,0,0,0,.389-1.472,78.671,78.671,0,0,0,9.861-6.384,25.925,25.925,0,0,0,3.924-3.557,10.738,10.738,0,0,1,.8-.848c2-1.94,3.357-2.212,3.735-1.93C656.717,158.419,656.747,160.153,655.282,162.746Zm-54.944,30.418a3.548,3.548,0,1,0-3.626-3.547A3.587,3.587,0,0,0,600.338,193.164Zm0-5.146a1.6,1.6,0,1,1-1.634,1.6A1.623,1.623,0,0,1,600.338,188.018Z" transform="translate(0 -65.457)" fill="#523680"/>
    </g>
  </g>
</svg>
