<svg xmlns="http://www.w3.org/2000/svg" width="80.243" height="76.533" viewBox="0 0 80.243 76.533">
  <g id="dollar-house" transform="translate(-603.247 -476.444)">
    <path id="Path_5899" data-name="Path 5899" d="M675.514,508.512l-36.622-31.834a.953.953,0,0,0-1.277.023l-13.54,12.653v-3.631a.954.954,0,0,0-.954-.954H612.1a.954.954,0,0,0-.953.954v15.713l-7.594,7.1a.954.954,0,0,0,.652,1.65h3.4v28.2H604.42a.953.953,0,0,0-.954.954v3.815a.953.953,0,0,0,.954.954h26.8a.953.953,0,0,0,.954-.954V528.8a7.18,7.18,0,0,1,7.172-7.172,7.2,7.2,0,0,1,7.172,7.172v14.353a.953.953,0,0,0,.954.954h8.9V542.2h-7.944v-1.907h7.591v-1.908h-7.591V528.8a9.111,9.111,0,0,0-9.079-9.08,9.089,9.089,0,0,0-9.079,9.08v9.584H609.5v-28.2h60.11v15.106h1.907V510.185h3.367a.954.954,0,0,0,.626-1.673Zm-53.345-21.835v4.459l-9.117,8.518V486.677Zm8.1,53.616V542.2H605.374v-1.907h24.891Zm40.3-32.016h-63.95l6.131-5.73h0l11.025-10.3h0l14.516-13.566,34.048,29.6Z" transform="translate(0 0)" fill="#523680"/>
    <path id="Path_5900" data-name="Path 5900" d="M766.422,643.277a14.336,14.336,0,0,1-13.943-10.89c-.038-.165-.067-.293-.1-.481a13.892,13.892,0,0,1-.314-2.981,14.358,14.358,0,1,1,14.362,14.353Zm0-26.8a12.465,12.465,0,0,0-12.455,12.445,12,12,0,0,0,.273,2.588c.037.184.063.3.087.4a12.452,12.452,0,1,0,12.094-15.438Zm4.412,14.531a3.726,3.726,0,0,0-.835-1.291,4.545,4.545,0,0,0-1.4-.922,14.627,14.627,0,0,0-1.844-.543v-5.317a2.519,2.519,0,0,1,1.419.763,3.161,3.161,0,0,1,.681,1.665l1.905-.287a4.191,4.191,0,0,0-1.455-2.756,4.554,4.554,0,0,0-2.551-.943V620.5h-1.086v.881a4.844,4.844,0,0,0-2.766,1,4.339,4.339,0,0,0-.917,5.163,3.4,3.4,0,0,0,1.357,1.362,7.707,7.707,0,0,0,2.326.881v5.87a2.69,2.69,0,0,1-1.864-1.1,4.674,4.674,0,0,1-.758-2.182l-1.854.348a5.131,5.131,0,0,0,.733,2.428,3.916,3.916,0,0,0,1.5,1.44,6.825,6.825,0,0,0,2.248.619v1.844h1.086V637.2a4.426,4.426,0,0,0,4.374-4.569A4.426,4.426,0,0,0,770.834,631.01Zm-5.169-2.992A3.633,3.633,0,0,1,763.877,627a2.561,2.561,0,0,1,.093-3.227,2.728,2.728,0,0,1,1.695-.86Zm2.863,6.711a2.733,2.733,0,0,1-1.777.932v-5.614a4.289,4.289,0,0,1,1.982,1.091,2.474,2.474,0,0,1,.5,1.614A2.887,2.887,0,0,1,768.529,634.729Z" transform="translate(-97.285 -90.301)" fill="#ff9c1a"/>
  </g>
</svg>
